# xmcd
#
# Track frame offsets:
#	150
#	13539
#	34570
#	48760
#	58577
#	83164
#	97730
#	116029
#	129087
#	141555
#	156325
#	177770
#	191740
#	209823
#	224642
#	242788
#	254946
#	267414
#	279262
#	297843
#	309799
#	331865
#
# Disc length: 4670 seconds
#
# Revision: 1
# Processed by: cddbd v1.5.2PL0 Copyright (c) Steve Scherf et al.
# Submitted via: audiograbber 1.83.01
#
DISCID=47123c16
DTITLE=Various Artist - Saturday Night Country
DYEAR=2011
DGENRE=Country
TTITLE0=Catherine Britt - Can't Change A Thing
TTITLE1=Graeme Connors - A Good Life
TTITLE2=Kasey Chambers (featuring Kevin Bennett) - Love Like A Hurricane
TTITLE3=Pete Denahy - Sort Of Dunno Nothing
TTITLE4=Kim Cheshire - Dead Man's Shoes
TTITLE5=Harmony James - Good Enough
TTITLE6=Luke Webb - Honey All I Do Is Try
TTITLE7=Greg Storer and Sara Storer - Ploughman's Prayer
TTITLE8=The Pigs (with Special Guest John Williamson on Jaw Harp) - Single Ladi
TTITLE8=es (Put A Ring On It)
TTITLE9=Anne Kirkpatrick (featuring Troy Cassar-Daley) - You Ain't Goin' Nowher
TTITLE9=e
TTITLE10=Felicity Urquhart - Fiesta
TTITLE11=Sam Hawksley - Sounds Like Summer
TTITLE12=The Greencards - Rivertown
TTITLE13=John O'Dea - Ram In The Dam
TTITLE14=Victoria Baillie - Mr. Yesterday
TTITLE15=Ian Simpson and John Kane - Foggy Mountain Breakdown
TTITLE16=The Wilson Pickers - Shake It Down
TTITLE17=Adam Harvey (featuring Beccy Cole)McAlister  - Jackson
TTITLE18=McAlister Kemp - It Don't Buy Your Love
TTITLE19=Neil Murray - Country Star
TTITLE20=Ted Egan - Queensland Opera
TTITLE21=Lee Kernaghan - People Like Us
EXTD=
EXTT0=
EXTT1=
EXTT2=
EXTT3=
EXTT4=
EXTT5=
EXTT6=
EXTT7=
EXTT8=
EXTT9=
EXTT10=
EXTT11=
EXTT12=
EXTT13=
EXTT14=
EXTT15=
EXTT16=
EXTT17=
EXTT18=
EXTT19=
EXTT20=
EXTT21=
PLAYORDER=
